<svg xmlns="http://www.w3.org/2000/svg" xmlns:xlink="http://www.w3.org/1999/xlink" width="32" height="32" viewBox="0 0 32 32">
  <defs>
    <style>
       path {
         fill: #07377a;
       }
       @media (prefers-color-scheme: dark) {
         path {
           fill: #a2faaa;
         }
       }
    </style>
  </defs>
  <path d="M6.61,27.773a8.9,8.9,0,0,1-2.458-.743,6.758,6.758,0,0,1-1.858-1.3A6.391,6.391,0,0,1,1,23.812a10.436,10.436,0,0,1-.753-2.6A20.379,20.379,0,0,1,0,17.9V10.1A17.291,17.291,0,0,1,.553,5.4,7.179,7.179,0,0,1,2.284,2.267,6.821,6.821,0,0,1,5.3.535,15.835,15.835,0,0,1,9.684,0a18.4,18.4,0,0,1,3.083.236,9.58,9.58,0,0,1,2.447.735,6.369,6.369,0,0,1,1.859,1.3,6.538,6.538,0,0,1,1.3,1.922,10.284,10.284,0,0,1,.745,2.593,21.12,21.12,0,0,1,.234,3.319v7.8a17.525,17.525,0,0,1-.543,4.688,7.118,7.118,0,0,1-1.732,3.138,6.836,6.836,0,0,1-3.02,1.741A15.812,15.812,0,0,1,9.666,28a18.915,18.915,0,0,1-3.056-.227m3.573-5.884a1.1,1.1,0,0,0,.39-.218,1.054,1.054,0,0,0,.263-.408,2.909,2.909,0,0,0,.145-.663c.03-.265.054-.577.072-.934s.028-.758.028-1.2v-9c0-.446-.01-.843-.028-1.188s-.043-.646-.072-.907a2.578,2.578,0,0,0-.145-.634,1.453,1.453,0,0,0-.255-.417.729.729,0,0,0-.38-.227,2.359,2.359,0,0,0-.535-.054,2.15,2.15,0,0,0-.509.054.73.73,0,0,0-.372.227,1.289,1.289,0,0,0-.244.417,3.45,3.45,0,0,0-.155.634,7.167,7.167,0,0,0-.082.889q-.018.5-.018,1.206v9q0,.688.018,1.214a7.514,7.514,0,0,0,.082.925,3.452,3.452,0,0,0,.163.663,1.123,1.123,0,0,0,.246.408.909.909,0,0,0,.362.218,1.629,1.629,0,0,0,.509.072,1.716,1.716,0,0,0,.517-.072" transform="translate(6 2)" />
</svg>